:SAMPLES-PER-SECOND 30
:FULLY-SPECIFIED
:DEGREES
872
root  -16.9979 38.0216 0.203868 168.286 -80.8777 -173.235
RightUpLeg  19.8311 -8.27612 -3.48261
RightLeg  12.4567 5.00923 0.519009
RightFoot  -22.5725 0.168824 3.25674
RightToes  5.82063e-011 0 -3.6325e-017
Spine  8.41571 0.502439 6.59974
Spine1  7.52065 2.2261 -5.03386
HEad  -7.98058 -4.31472 -5.11607
LeftShoulder1  -0.348019 4.40152 -32.639
LeftArm  -4.8102 17.8337 -34.7658
LeftForeArm  26.3953 -8.78842 -7.47602
LeftHand  -0.152863 8.50053 -3.7529
RightShoulder  -0.95171 -6.06564 30.5706
RightArm  15.3804 -4.5771 44.785
RightForeArm  15.7827 8.59593 7.39046
RightHand  -0.0986612 1.34696 -1.82969
LeftUpLeg  -23.5162 8.68296 0.323396
LeftLeg  13.811 5.17271 1.07744
LeftFoot  6.8726 -0.641395 3.82916
LeftToes  -1.20963e-009 8.6283e-011 2.04439e-011
873
root  -18.3624 37.7481 0.293336 175.478 -81.8447 179.397
RightUpLeg  21.3409 -8.03457 -5.39234
RightLeg  14.5124 4.74943 0.46852
RightFoot  -23.4727 0.464465 5.86076
RightToes  5.82063e-011 0 -3.6325e-017
Spine  8.62803 0.482757 4.01846
Spine1  7.05082 1.78401 -4.08086
HEad  -9.19536 -4.11842 -3.85454
LeftShoulder1  -0.369242 4.45432 -32.7083
LeftArm  -5.78937 19.5665 -34.3919
LeftForeArm  26.3712 -7.72865 -7.13131
LeftHand  -0.114191 7.97701 -2.99463
RightShoulder  -1.00938 -6.19618 30.9251
RightArm  14.3684 -6.70875 43.9169
RightForeArm  16.3338 8.52572 6.98318
RightHand  -0.0724754 1.003 -1.42412
LeftUpLeg  -24.8898 9.36672 -1.85322
LeftLeg  20.0873 3.04695 1.64534
LeftFoot  6.36655 -0.731229 4.46421
LeftToes  -1.20963e-009 8.6283e-011 2.04439e-011
874
root  -19.6429 37.6074 0.415066 -175.289 -82.5966 169.784
RightUpLeg  22.3344 -6.46915 -6.99564
RightLeg  17.4039 3.63065 0.678745
RightFoot  -23.1321 0.858966 9.83719
RightToes  5.82063e-011 0 -3.6325e-017
Spine  9.16921 0.688982 1.84129
Spine1  7.00673 1.81189 -3.95463
HEad  -10.3703 -4.43873 -2.798
LeftShoulder1  -0.307396 4.29584 -32.6794
LeftArm  -5.70454 20.1032 -34.1349
LeftForeArm  25.2204 -6.48351 -7.15419
LeftHand  -0.0993865 8.47814 -1.87382
RightShoulder  -1.01103 -6.20014 30.9296
RightArm  13.2436 -9.18073 43.2942
RightForeArm  15.5772 8.94703 6.45931
RightHand  -0.0696019 1.16835 -1.34927
LeftUpLeg  -24.9986 8.9012 -3.59841
LeftLeg  24.7037 2.91557 1.80193
LeftFoot  3.99304 -0.882035 6.37738
LeftToes  -1.20963e-009 8.6283e-011 2.04439e-011
875
root  -20.8232 37.5951 0.596619 -168.109 -82.0037 162.629
RightUpLeg  21.0845 -3.98666 -8.29325
RightLeg  22.6883 3.01975 1.22522
RightFoot  -20.9921 1.10712 14.8953
RightToes  5.82063e-011 0 -3.6325e-017
Spine  9.36269 1.18744 1.06258
Spine1  7.22646 2.50847 -5.53191
HEad  -10.6318 -4.6654 -1.60544
LeftShoulder1  -0.302022 4.28081 -32.7361
LeftArm  -5.90803 19.9391 -33.8475
LeftForeArm  24.5759 -5.80725 -6.96104
LeftHand  -0.105678 8.70446 -1.91945
RightShoulder  -0.984038 -6.13098 30.884
RightArm  13.2222 -10.2613 42.9342
RightForeArm  14.7874 8.4319 6.51655
RightHand  -0.0817107 1.07183 -1.58104
LeftUpLeg  -24.4377 9.71475 -5.10054
LeftLeg  27.2888 2.97525 2.00978
LeftFoot  1.34311 -0.876183 7.77752
LeftToes  -1.20963e-009 8.6283e-011 2.04439e-011
876
root  -21.8994 37.6607 0.811409 -162.513 -81.4382 156.969
RightUpLeg  17.7389 -3.3111 -10.3935
RightLeg  31.0928 3.44241 1.99591
RightFoot  -15.9295 0.652621 19.0926
RightToes  5.82063e-011 0 -3.6325e-017
Spine  10.1044 1.36832 0.114321
Spine1  6.8696 2.66144 -6.61471
HEad  -10.5911 -4.0474 -1.47185
LeftShoulder1  -0.298543 4.27328 -32.6789
LeftArm  -6.07451 19.8005 -33.861
LeftForeArm  23.5452 -5.90219 -6.8832
LeftHand  -0.110337 8.92724 -1.89919
RightShoulder  -0.9154 -5.98084 30.3397
RightArm  13.4895 -9.95362 43.2933
RightForeArm  16.2702 7.73584 6.68513
RightHand  -0.0614566 0.681771 -1.23394
LeftUpLeg  -23.2433 9.93084 -6.40498
LeftLeg  28.6379 3.26414 2.28104
LeftFoot  -1.11242 -0.695208 7.81127
LeftToes  -1.20963e-009 8.6283e-011 2.04439e-011
877
root  -22.9538 37.7931 1.00392 -157.807 -80.7615 152.399
RightUpLeg  12.2631 -2.14799 -12.063
RightLeg  41.3486 3.16042 2.7008
RightFoot  -6.58731 -0.678563 17.5421
RightToes  5.82063e-011 0 -3.6325e-017
Spine  10.2546 1.50851 -1.3805
Spine1  6.80658 2.56574 -6.38028
HEad  -11.2617 -3.41164 -1.25785
LeftShoulder1  -0.249217 4.14327 -32.7588
LeftArm  -6.30202 19.1333 -34.1656
LeftForeArm  22.3391 -6.59477 -6.8531
LeftHand  -0.0852782 8.7088 -1.26714
RightShoulder  -0.81227 -5.75429 29.4752
RightArm  13.0299 -9.06386 43.9948
RightForeArm  18.2518 8.14472 6.4775
RightHand  -0.0214157 0.213055 -0.492711
LeftUpLeg  -21.7571 9.50549 -7.60121
LeftLeg  28.9707 4.1017 2.81008
LeftFoot  -2.99659 -0.523605 7.42789
LeftToes  -1.20963e-009 8.6283e-011 2.04439e-011
